HIERARCHY
ROOT Hips
{
	OFFSET 0.00000 0.00000 0.00000
	CHANNELS 6 Xposition Yposition Zposition Zrotation Yrotation Xrotation 
	JOINT LHipJoint
	{
		OFFSET 0 0 0
		CHANNELS 3 Zrotation Yrotation Xrotation
		JOINT LeftUpLeg
		{
			OFFSET 1.62964 -1.40469 0.78906
			CHANNELS 3 Zrotation Yrotation Xrotation
			JOINT LeftLeg
			{
				OFFSET 2.29640 -6.30932 0.00000
				CHANNELS 3 Zrotation Yrotation Xrotation
				JOINT LeftFoot
				{
					OFFSET 2.29451 -6.30412 0.00000
					CHANNELS 3 Zrotation Yrotation Xrotation
					JOINT LeftToeBase
					{
						OFFSET 0.03611 -0.09921 1.56387
						CHANNELS 3 Zrotation Yrotation Xrotation
						End Site
						{
							OFFSET 0.00000 -0.00000 0.80291
						}
					}
				}
			}
		}
	}
	JOINT RHipJoint
	{
		OFFSET 0 0 0
		CHANNELS 3 Zrotation Yrotation Xrotation
		JOINT RightUpLeg
		{
			OFFSET -1.73712 -1.40469 0.78906
			CHANNELS 3 Zrotation Yrotation Xrotation
			JOINT RightLeg
			{
				OFFSET -2.28137 -6.26801 0.00000
				CHANNELS 3 Zrotation Yrotation Xrotation
				JOINT RightFoot
				{
					OFFSET -2.28681 -6.28298 0.00000
					CHANNELS 3 Zrotation Yrotation Xrotation
					JOINT RightToeBase
					{
						OFFSET -0.15927 -0.43759 1.61103
						CHANNELS 3 Zrotation Yrotation Xrotation
						End Site
						{
							OFFSET -0.00000 -0.00000 0.84630
						}
					}
				}
			}
		}
	}
	JOINT LowerBack
	{
		OFFSET 0 0 0
		CHANNELS 3 Zrotation Yrotation Xrotation
		JOINT Spine
		{
			OFFSET -0.04227 2.04338 -0.00225
			CHANNELS 3 Zrotation Yrotation Xrotation
			JOINT Spine1
			{
				OFFSET -0.02148 2.04482 -0.04273
				CHANNELS 3 Zrotation Yrotation Xrotation
				JOINT Neck
				{
					OFFSET 0 0 0
					CHANNELS 3 Zrotation Yrotation Xrotation
					JOINT Neck1
					{
						OFFSET 0.09180 1.44629 0.19359
						CHANNELS 3 Zrotation Yrotation Xrotation
						JOINT Head
						{
							OFFSET 0.00887 1.40645 0.14750
							CHANNELS 3 Zrotation Yrotation Xrotation
							End Site
							{
								OFFSET -0.00669 1.50671 0.03707
							}
						}
					}
				}
				JOINT LeftShoulder
				{
					OFFSET 0 0 0
					CHANNELS 3 Zrotation Yrotation Xrotation
					JOINT LeftArm
					{
						OFFSET 2.17674 1.86763 -0.06520
						CHANNELS 3 Zrotation Yrotation Xrotation
						JOINT LeftForeArm
						{
							OFFSET 4.65776 -0.00000 0.00000
							CHANNELS 3 Zrotation Yrotation Xrotation
							JOINT LeftHand
							{
								OFFSET 3.55539 -0.00000 0.00000
								CHANNELS 3 Zrotation Yrotation Xrotation
								JOINT LeftFingerBase
								{
									OFFSET 0 0 0
									CHANNELS 3 Zrotation Yrotation Xrotation
									JOINT LeftHandIndex1
									{
										OFFSET 0.70726 -0.00000 0.00000
										CHANNELS 3 Zrotation Yrotation Xrotation
										End Site
										{
											OFFSET 0.57022 -0.00000 0.00000
										}
									}
								}
								JOINT LThumb
								{
									OFFSET 0 0 0
									CHANNELS 3 Zrotation Yrotation Xrotation
									End Site
									{
										OFFSET 0.57892 -0.00000 0.57892
									}
								}
							}
						}
					}
				}
				JOINT RightShoulder
				{
					OFFSET 0 0 0
					CHANNELS 3 Zrotation Yrotation Xrotation
					JOINT RightArm
					{
						OFFSET -2.80694 1.55459 -0.32496
						CHANNELS 3 Zrotation Yrotation Xrotation
						JOINT RightForeArm
						{
							OFFSET -4.71925 -0.00000 -0.00000
							CHANNELS 3 Zrotation Yrotation Xrotation
							JOINT RightHand
							{
								OFFSET -3.56990 -0.00000 0.00000
								CHANNELS 3 Zrotation Yrotation Xrotation
								JOINT RightFingerBase
								{
									OFFSET 0 0 0
									CHANNELS 3 Zrotation Yrotation Xrotation
									JOINT RightHandIndex1
									{
										OFFSET -0.50776 -0.00000 0.00000
										CHANNELS 3 Zrotation Yrotation Xrotation
										End Site
										{
											OFFSET -0.40937 -0.00000 0.00000
										}
									}
								}
								JOINT RThumb
								{
									OFFSET 0 0 0
									CHANNELS 3 Zrotation Yrotation Xrotation
									End Site
									{
										OFFSET -0.41562 -0.00000 0.41562
									}
								}
							}
						}
					}
				}
			}
		}
	}
}
MOTION
Frames: 5
Frame Time: .0083333
10.6794 23.5061 8.7164 377.4020 -48.7735 19.2464 0.0000 0.0000 0.0000 -14.1469 -15.8544 -43.5707 7.0768 15.3962 49.1640 1.7858 19.2096 25.7413 6.6938 -15.0685 -47.7065 0.0000 0.0000 0.0000 15.0463 15.6408 -42.4707 -2.0756 -9.0218 25.8635 -0.5658 -12.5761 14.9855 -3.8444 11.9504 -35.5567 -9.1275 -0.9806 -27.7602 1.7812 1.0648 -3.7491 7.7138 0.0037 10.9538 -2.9343 -0.4962 -0.7894 6.7194 -1.1657 8.9122 2.7015 -0.4832 3.0909 -0.0000 0.0000 0.0000 -19.2210 19.8032 33.5825 133.9715 -51.2625 -96.9618 -0.0000 0.0000 -19.5431 24.4657 -29.1904 -12.5118 -7.1250 0.0000 -0.0000 -3.6655 -1.5033 3.7680 -0.0000 0.0000 0.0000 81.4271 -1.0220 58.8263 -57.4519 55.5918 -32.2297 0.0000 -0.0000 -11.3867 25.1568 -47.1368 -18.9954 7.1250 -0.0000 -0.0000 76.8931 -61.2126 -43.0458
10.7507 23.5070 8.7183 378.5320 -52.6458 18.3204 0.0000 0.0000 0.0000 -13.9448 -15.5354 -43.5897 6.9943 15.3271 48.8527 1.8478 18.9916 26.0288 6.6674 -15.0453 -47.6050 0.0000 0.0000 0.0000 15.1827 15.2008 -42.5989 -2.1259 -9.1235 26.1824 -0.5304 -13.2256 14.9084 -3.6526 11.6831 -34.6201 -9.0973 -0.6296 -27.7531 1.7158 1.5115 -3.6815 7.7794 0.2079 10.9430 -3.0627 -0.4607 -0.7490 6.7409 -1.1182 8.8807 2.7333 -0.4660 3.0719 0.0000 -0.0000 0.0000 -18.4407 19.0468 32.9902 133.4981 -51.4834 -96.5919 -0.0000 0.0000 -19.5111 24.6623 -29.3599 -12.6869 -7.1250 0.0000 -0.0000 -3.5770 -1.7233 3.6900 0.0000 -0.0000 0.0000 81.1548 -0.9480 58.0852 -54.4443 54.6379 -29.7623 0.0000 -0.0000 -10.7533 25.9950 -46.9137 -19.6020 7.1250 -0.0000 -0.0000 77.1318 -60.8880 -42.7476
10.8309 23.5019 8.7067 380.1190 -56.1969 16.9166 0.0000 0.0000 0.0000 -13.8603 -15.3650 -43.8269 6.9767 15.3123 48.7862 1.8499 18.9103 26.0169 6.4177 -14.8213 -46.6361 0.0000 0.0000 0.0000 15.0286 14.6776 -42.7002 -2.1726 -9.2166 26.4754 -0.3917 -14.7426 14.3113 -3.0276 10.7396 -31.4066 -9.3521 -0.6030 -27.4317 1.6524 1.6051 -3.4860 7.8797 0.2317 10.9790 -3.1122 -0.3223 -0.9569 6.6494 -0.9228 8.8864 2.7180 -0.3714 3.1008 0.0000 -0.0000 0.0000 -17.7823 18.7740 32.0534 133.2849 -51.5816 -96.4250 -0.0000 0.0000 -19.1148 24.7947 -29.3165 -12.7451 -7.1250 0.0000 -0.0000 -3.4937 -1.7077 3.6029 0.0000 -0.0000 0.0000 81.0837 -0.2730 57.7756 -51.3638 53.5310 -27.2672 0.0000 -0.0000 -9.8288 27.4295 -47.2640 -20.8670 7.1250 -0.0000 -0.0000 78.6916 -60.6200 -43.7941
10.9166 23.4861 8.7129 381.7250 -59.4088 15.4733 0.0000 0.0000 0.0000 -13.6717 -15.5411 -44.0869 6.9616 15.2995 48.7291 1.8315 18.9539 25.9249 5.9868 -14.4155 -44.9285 0.0000 0.0000 0.0000 15.3300 13.5049 -42.9586 -2.1765 -9.2244 26.4998 -0.3990 -15.4887 14.7465 -2.9938 10.6850 -31.2248 -9.1720 -0.6876 -27.3079 1.5368 1.4734 -3.0072 7.6029 0.1336 11.5106 -3.0204 -0.1449 -1.5670 6.4726 -0.6657 8.9187 2.6535 -0.2368 3.2089 0.0000 0.0000 0.0000 -17.0378 17.9637 30.5098 132.4268 -51.9686 -95.7509 -0.0000 0.0000 -18.9505 24.8470 -29.2134 -12.7351 -7.1250 0.0000 -0.0000 -3.4476 -1.6120 3.5496 0.0000 0.0000 0.0000 81.2391 1.1244 57.8142 -48.2936 52.2837 -24.8178 0.0000 -0.0000 -9.1358 26.2133 -47.8099 -20.0415 7.1250 -0.0000 -0.0000 78.7133 -61.1702 -44.7082
11.0037 23.4630 8.7276 383.6880 -62.4642 13.5859 0.0000 0.0000 0.0000 -13.5914 -15.8355 -44.1470 6.9069 15.2530 48.5212 1.7788 19.1736 25.6903 5.3117 -13.7264 -42.1524 0.0000 0.0000 0.0000 15.6034 12.0884 -43.1932 -2.1858 -9.2428 26.5578 -0.4039 -15.9542 15.0243 -2.8593 10.4637 -30.4918 -8.9826 -0.2981 -27.0299 1.5043 1.9222 -2.6996 7.6111 0.3345 11.6453 -3.3780 -0.3075 -1.9477 6.6846 -0.8772 8.8981 2.7899 -0.3402 3.2943 0.0000 -0.0000 0.0000 -16.6334 15.8417 29.8180 131.6570 -52.3050 -95.1431 -0.0000 0.0000 -18.8810 24.8090 -29.7850 -12.9323 -7.1250 0.0000 -0.0000 -3.5574 -2.1984 3.6983 0.0000 -0.0000 0.0000 80.6064 1.5128 56.3710 -46.1723 51.3301 -23.1505 0.0000 -0.0000 -8.3278 25.9680 -46.4935 -19.4557 7.1250 -0.0000 -0.0000 76.4526 -60.7279 -41.8544
